<svg width="16" height="16" viewBox="0 0 16 16" fill="none" xmlns="http://www.w3.org/2000/svg">
<path d="M10.5 3C11.0812 3 11.3718 3 11.6103 3.06389C12.2573 3.23726 12.7627 3.74267 12.9361 4.38971C13 4.62815 13 4.91877 13 5.5V11.25C13 12.3001 13 12.8251 12.7956 13.2262C12.6159 13.579 12.329 13.8659 11.9762 14.0456C11.5751 14.25 11.0501 14.25 10 14.25H6C4.9499 14.25 4.42485 14.25 4.02377 14.0456C3.67096 13.8659 3.38413 13.579 3.20436 13.2262C3 12.8251 3 12.3001 3 11.25V5.5C3 4.91877 3 4.62815 3.06389 4.38971C3.23726 3.74267 3.74267 3.23726 4.38971 3.06389C4.62815 3 4.91877 3 5.5 3M8 10.1875V7.375C8 6.85723 8.41973 6.4375 8.9375 6.4375C9.45527 6.4375 9.875 6.85723 9.875 7.375V10.1875C9.875 11.223 9.03553 12.0625 8 12.0625C6.96447 12.0625 6.125 11.223 6.125 10.1875V7.6875M6.5 4.25H9.5C9.85003 4.25 10.025 4.25 10.1587 4.18188C10.2763 4.12196 10.372 4.02635 10.4319 3.90874C10.5 3.77505 10.5 3.60003 10.5 3.25V2.75C10.5 2.39997 10.5 2.22495 10.4319 2.09126C10.372 1.97365 10.2763 1.87804 10.1587 1.81812C10.025 1.75 9.85003 1.75 9.5 1.75H6.5C6.14997 1.75 5.97495 1.75 5.84126 1.81812C5.72365 1.87804 5.62804 1.97365 5.56812 2.09126C5.5 2.22495 5.5 2.39997 5.5 2.75V3.25C5.5 3.60003 5.5 3.77505 5.56812 3.90874C5.62804 4.02635 5.72365 4.12196 5.84126 4.18188C5.97495 4.25 6.14997 4.25 6.5 4.25Z" stroke="#5198D7" stroke-linecap="round" stroke-linejoin="round"/>
</svg>
