<svg width="14" height="14" viewBox="0 0 14 14" fill="none" xmlns="http://www.w3.org/2000/svg">
<path d="M12.3126 4.04871L7.0001 7.0001M7.0001 7.0001L1.6876 4.04871M7.0001 7.0001L7.00012 12.9376M12.6251 9.53671V4.46352C12.6251 4.24937 12.6251 4.14229 12.5936 4.04679C12.5657 3.96231 12.52 3.88475 12.4597 3.81932C12.3916 3.74536 12.298 3.69336 12.1108 3.58936L7.48577 1.01992C7.30851 0.921442 7.21989 0.872205 7.12603 0.852901C7.04296 0.835817 6.95728 0.835817 6.87422 0.852901C6.78036 0.872205 6.69173 0.921442 6.51448 1.01992L1.88948 3.58936C1.70228 3.69336 1.60868 3.74536 1.54052 3.81932C1.48022 3.88475 1.43459 3.96231 1.40668 4.04679C1.37512 4.14229 1.37512 4.24937 1.37512 4.46352V9.53671C1.37512 9.75086 1.37512 9.85794 1.40668 9.95344C1.43459 10.0379 1.48022 10.1155 1.54052 10.1809C1.60868 10.2549 1.70228 10.3069 1.88948 10.4109L6.51448 12.9803C6.69173 13.0788 6.78036 13.128 6.87422 13.1473C6.95728 13.1644 7.04296 13.1644 7.12603 13.1473C7.21989 13.128 7.30851 13.0788 7.48577 12.9803L12.1108 10.4109C12.298 10.3069 12.3916 10.2549 12.4597 10.1809C12.52 10.1155 12.5657 10.0379 12.5936 9.95344C12.6251 9.85794 12.6251 9.75086 12.6251 9.53671Z" stroke="#5198D7" stroke-width="1.5" stroke-linecap="round" stroke-linejoin="round"/>
</svg>
