<svg width="30" height="30" viewBox="0 0 30 30" fill="none" xmlns="http://www.w3.org/2000/svg">
<path d="M20.2948 11.8067C19.8487 10.1416 18.6575 8.74911 16.9834 7.9357C15.3093 7.12228 13.2894 6.95453 11.3681 7.46936C9.44673 7.98418 7.78133 9.1394 6.73823 10.6809C5.69513 12.2224 5.35978 14.0239 5.80596 15.689C6.54418 18.4441 6.40083 20.6421 5.93464 22.3122C5.40331 24.2158 5.13764 25.1676 5.20941 25.3587C5.29153 25.5774 5.35093 25.6374 5.56872 25.7218C5.75908 25.7955 6.55879 25.5812 8.15822 25.1527L22.9896 21.1786C24.589 20.7501 25.3887 20.5358 25.5167 20.3767C25.6631 20.1948 25.6845 20.1131 25.6463 19.8827C25.6129 19.6813 24.9069 18.9898 23.495 17.607C22.2562 16.3936 21.0331 14.5618 20.2948 11.8067Z" fill="white"/>
<path d="M17.9887 22.5186C18.5247 24.5191 17.3376 26.5754 15.3371 27.1114C13.3366 27.6474 11.2803 26.4602 10.7443 24.4597M13.6144 7.17618C13.9946 6.49206 14.1199 5.66518 13.9013 4.84944C13.4546 3.18236 11.7411 2.19303 10.074 2.63973C8.4069 3.08642 7.41758 4.79997 7.86428 6.46706C8.08285 7.2828 8.60477 7.93627 9.27615 8.33861M20.2948 11.8067C19.8487 10.1416 18.6575 8.74911 16.9834 7.9357C15.3093 7.12228 13.2894 6.95453 11.3681 7.46936C9.44673 7.98418 7.78133 9.1394 6.73823 10.6809C5.69513 12.2224 5.35978 14.0239 5.80596 15.689C6.54418 18.4441 6.40083 20.6421 5.93464 22.3122C5.40331 24.2158 5.13764 25.1676 5.20941 25.3587C5.29153 25.5774 5.35093 25.6374 5.56872 25.7218C5.75908 25.7955 6.55879 25.5812 8.15822 25.1527L22.9896 21.1786C24.589 20.7501 25.3887 20.5358 25.5167 20.3767C25.6631 20.1948 25.6845 20.1131 25.6463 19.8827C25.6129 19.6813 24.9069 18.9898 23.495 17.607C22.2562 16.3936 21.0331 14.5618 20.2948 11.8067Z" stroke="#C3CAD9" stroke-width="2" stroke-linecap="round" stroke-linejoin="round"/>
</svg>
